<svg width="600" height="390" viewBox="0 0 600 390" fill="none" xmlns="http://www.w3.org/2000/svg">
<g clip-path="url(#clip0_4909_26140)">
<rect width="600" height="390" fill="white"></rect>
<g clip-path="url(#clip1_4909_26140)">
<path d="M103 69H779V114H103V69Z" fill="white"></path>
<path d="M779 113.471V113H103V113.471V113.941H779V113.471Z" fill="#E0E0E0"></path>
<path d="M406.283 85.5244H397.342C394.231 85.5244 391.708 88.0524 391.708 91.1708C391.708 94.2891 394.231 96.8171 397.342 96.8171H406.283C409.395 96.8171 411.917 94.2891 411.917 91.1708C411.917 88.0524 409.395 85.5244 406.283 85.5244Z" fill="#006D31"></path>
<path d="M482.283 85.5244H473.342C470.231 85.5244 467.708 88.0524 467.708 91.1708C467.708 94.2891 470.231 96.8171 473.342 96.8171H482.283C485.395 96.8171 487.917 94.2891 487.917 91.1708C487.917 88.0524 485.395 85.5244 482.283 85.5244Z" fill="#006D31"></path>
<rect x="148" y="84" width="127" height="7" fill="#EEEEEE"></rect>
<rect x="148" y="95" width="127" height="5" fill="#EEEEEE"></rect>
<rect x="313" y="89" width="24" height="5" fill="#EEEEEE"></rect>
<rect x="375" y="89" width="13" height="5" fill="#EEEEEE"></rect>
<rect x="451" y="89" width="13" height="5" fill="#EEEEEE"></rect>
<rect x="525" y="89" width="13" height="5" fill="#EEEEEE"></rect>
<rect x="111" y="77" width="30" height="30" rx="5" fill="#EEEEEE"></rect>
<path d="M103 114H779V159H103V114Z" fill="white"></path>
<path d="M779 158.471V158H103V158.471V158.941H779V158.471Z" fill="#E0E0E0"></path>
<path d="M406.283 130.524H397.342C394.231 130.524 391.708 133.052 391.708 136.171C391.708 139.289 394.231 141.817 397.342 141.817H406.283C409.395 141.817 411.917 139.289 411.917 136.171C411.917 133.052 409.395 130.524 406.283 130.524Z" fill="#006D31"></path>
<path d="M482.283 130.524H473.342C470.231 130.524 467.708 133.052 467.708 136.171C467.708 139.289 470.231 141.817 473.342 141.817H482.283C485.395 141.817 487.917 139.289 487.917 136.171C487.917 133.052 485.395 130.524 482.283 130.524Z" fill="#006D31"></path>
<rect x="148" y="129" width="127" height="7" fill="#EEEEEE"></rect>
<rect x="148" y="140" width="127" height="5" fill="#EEEEEE"></rect>
<rect x="313" y="134" width="24" height="5" fill="#EEEEEE"></rect>
<rect x="375" y="134" width="13" height="5" fill="#EEEEEE"></rect>
<rect x="451" y="134" width="13" height="5" fill="#EEEEEE"></rect>
<rect x="525" y="134" width="13" height="5" fill="#EEEEEE"></rect>
<rect x="111" y="122" width="30" height="30" rx="5" fill="#EEEEEE"></rect>
<path d="M103 159H779V204H103V159Z" fill="white"></path>
<path d="M779 203.471V203H103V203.471V203.941H779V203.471Z" fill="#E0E0E0"></path>
<path d="M406.283 175.524H397.342C394.231 175.524 391.708 178.052 391.708 181.171C391.708 184.289 394.231 186.817 397.342 186.817H406.283C409.395 186.817 411.917 184.289 411.917 181.171C411.917 178.052 409.395 175.524 406.283 175.524Z" fill="#006D31"></path>
<path d="M482.283 175.524H473.342C470.231 175.524 467.708 178.052 467.708 181.171C467.708 184.289 470.231 186.817 473.342 186.817H482.283C485.395 186.817 487.917 184.289 487.917 181.171C487.917 178.052 485.395 175.524 482.283 175.524Z" fill="#006D31"></path>
<rect x="148" y="174" width="127" height="7" fill="#EEEEEE"></rect>
<rect x="148" y="185" width="127" height="5" fill="#EEEEEE"></rect>
<rect x="313" y="179" width="24" height="5" fill="#EEEEEE"></rect>
<rect x="375" y="179" width="13" height="5" fill="#EEEEEE"></rect>
<rect x="451" y="179" width="13" height="5" fill="#EEEEEE"></rect>
<rect x="525" y="179" width="13" height="5" fill="#EEEEEE"></rect>
<rect x="111" y="167" width="30" height="30" rx="5" fill="#EEEEEE"></rect>
<path d="M103 204H779V249H103V204Z" fill="white"></path>
<path d="M779 248.471V248H103V248.471V248.941H779V248.471Z" fill="#E0E0E0"></path>
<path d="M406.283 220.524H397.342C394.231 220.524 391.708 223.052 391.708 226.171C391.708 229.289 394.231 231.817 397.342 231.817H406.283C409.395 231.817 411.917 229.289 411.917 226.171C411.917 223.052 409.395 220.524 406.283 220.524Z" fill="#006D31"></path>
<path d="M482.283 220.524H473.342C470.231 220.524 467.708 223.052 467.708 226.171C467.708 229.289 470.231 231.817 473.342 231.817H482.283C485.395 231.817 487.917 229.289 487.917 226.171C487.917 223.052 485.395 220.524 482.283 220.524Z" fill="#006D31"></path>
<rect x="148" y="219" width="127" height="7" fill="#EEEEEE"></rect>
<rect x="148" y="230" width="127" height="5" fill="#EEEEEE"></rect>
<rect x="313" y="224" width="24" height="5" fill="#EEEEEE"></rect>
<rect x="375" y="224" width="13" height="5" fill="#EEEEEE"></rect>
<rect x="451" y="224" width="13" height="5" fill="#EEEEEE"></rect>
<rect x="525" y="224" width="13" height="5" fill="#EEEEEE"></rect>
<rect x="111" y="212" width="30" height="30" rx="5" fill="#EEEEEE"></rect>
<path d="M103 249H779V294H103V249Z" fill="white"></path>
<path d="M779 293.471V293H103V293.471V293.941H779V293.471Z" fill="#E0E0E0"></path>
<path d="M406.283 265.524H397.342C394.231 265.524 391.708 268.052 391.708 271.171C391.708 274.289 394.231 276.817 397.342 276.817H406.283C409.395 276.817 411.917 274.289 411.917 271.171C411.917 268.052 409.395 265.524 406.283 265.524Z" fill="#006D31"></path>
<path d="M482.283 265.524H473.342C470.231 265.524 467.708 268.052 467.708 271.171C467.708 274.289 470.231 276.817 473.342 276.817H482.283C485.395 276.817 487.917 274.289 487.917 271.171C487.917 268.052 485.395 265.524 482.283 265.524Z" fill="#006D31"></path>
<rect x="148" y="264" width="127" height="7" fill="#EEEEEE"></rect>
<rect x="148" y="275" width="127" height="5" fill="#EEEEEE"></rect>
<rect x="313" y="269" width="24" height="5" fill="#EEEEEE"></rect>
<rect x="375" y="269" width="13" height="5" fill="#EEEEEE"></rect>
<rect x="451" y="269" width="13" height="5" fill="#EEEEEE"></rect>
<rect x="525" y="269" width="13" height="5" fill="#EEEEEE"></rect>
<rect x="111" y="257" width="30" height="30" rx="5" fill="#EEEEEE"></rect>
<path d="M103 294H779V339H103V294Z" fill="white"></path>
<path d="M779 338.471V338H103V338.471V338.941H779V338.471Z" fill="#E0E0E0"></path>
<path d="M406.283 310.524H397.342C394.231 310.524 391.708 313.052 391.708 316.171C391.708 319.289 394.231 321.817 397.342 321.817H406.283C409.395 321.817 411.917 319.289 411.917 316.171C411.917 313.052 409.395 310.524 406.283 310.524Z" fill="#006D31"></path>
<path d="M482.283 310.524H473.342C470.231 310.524 467.708 313.052 467.708 316.171C467.708 319.289 470.231 321.817 473.342 321.817H482.283C485.395 321.817 487.917 319.289 487.917 316.171C487.917 313.052 485.395 310.524 482.283 310.524Z" fill="#006D31"></path>
<rect x="148" y="309" width="127" height="7" fill="#EEEEEE"></rect>
<rect x="148" y="320" width="127" height="5" fill="#EEEEEE"></rect>
<rect x="313" y="314" width="24" height="5" fill="#EEEEEE"></rect>
<rect x="375" y="314" width="13" height="5" fill="#EEEEEE"></rect>
<rect x="451" y="314" width="13" height="5" fill="#EEEEEE"></rect>
<rect x="525" y="314" width="13" height="5" fill="#EEEEEE"></rect>
<rect x="111" y="302" width="30" height="30" rx="5" fill="#EEEEEE"></rect>
<path d="M103 339H779V384H103V339Z" fill="white"></path>
<path d="M779 383.471V383H103V383.471V383.941H779V383.471Z" fill="#E0E0E0"></path>
<path d="M406.283 355.524H397.342C394.231 355.524 391.708 358.052 391.708 361.171C391.708 364.289 394.231 366.817 397.342 366.817H406.283C409.395 366.817 411.917 364.289 411.917 361.171C411.917 358.052 409.395 355.524 406.283 355.524Z" fill="#006D31"></path>
<path d="M482.283 355.524H473.342C470.231 355.524 467.708 358.052 467.708 361.171C467.708 364.289 470.231 366.817 473.342 366.817H482.283C485.395 366.817 487.917 364.289 487.917 361.171C487.917 358.052 485.395 355.524 482.283 355.524Z" fill="#006D31"></path>
<rect x="148" y="354" width="127" height="7" fill="#EEEEEE"></rect>
<rect x="148" y="365" width="127" height="5" fill="#EEEEEE"></rect>
<rect x="313" y="359" width="24" height="5" fill="#EEEEEE"></rect>
<rect x="375" y="359" width="13" height="5" fill="#EEEEEE"></rect>
<rect x="451" y="359" width="13" height="5" fill="#EEEEEE"></rect>
<rect x="525" y="359" width="13" height="5" fill="#EEEEEE"></rect>
<rect x="111" y="347" width="30" height="30" rx="5" fill="#EEEEEE"></rect>
<path d="M103 384H779V429H103V384Z" fill="white"></path>
</g>
<rect x="102.75" y="68.75" width="676.5" height="405.5" rx="7.25" stroke="#E0E0E0" stroke-width="0.5"></rect>
</g>
<defs>
<clipPath id="clip0_4909_26140">
<rect width="600" height="390" fill="white"></rect>
</clipPath>
<clipPath id="clip1_4909_26140">
<rect x="103" y="69" width="676" height="405" rx="7" fill="white"></rect>
</clipPath>
</defs>
</svg>
