<svg width="600" height="390" viewBox="0 0 600 390" fill="none" xmlns="http://www.w3.org/2000/svg">
<g clip-path="url(#clip0_4910_27570)">
<rect width="600" height="390" fill="white"></rect>
<g clip-path="url(#clip1_4910_27570)">
<path d="M499 69H-177V91.5854H499V69Z" fill="#F9F9F9"></path>
<rect x="46" y="77" width="29" height="7" fill="#323232"></rect>
<rect x="83" y="77" width="7" height="7" fill="#323232"></rect>
<rect x="108" y="77" width="20" height="7" fill="#323232"></rect>
<rect x="136" y="77" width="7" height="7" fill="#323232"></rect>
<rect x="183" y="77" width="20" height="7" fill="#323232"></rect>
<rect x="211" y="77" width="7" height="7" fill="#323232"></rect>
<rect x="259" y="77" width="23" height="7" fill="#323232"></rect>
<rect x="290" y="77" width="7" height="7" fill="#323232"></rect>
<rect x="355" y="77" width="25" height="7" fill="#323232"></rect>
<rect x="388" y="77" width="7" height="7" fill="#323232"></rect>
<path d="M-177 91.5854H499V136.585H-177V91.5854Z" fill="white"></path>
<path d="M499 136.056V135.585H-177V136.056V136.527H499V136.056Z" fill="#E0E0E0"></path>
<path d="M139.283 108.11H130.342C127.231 108.11 124.708 110.638 124.708 113.756C124.708 116.875 127.231 119.403 130.342 119.403H139.283C142.395 119.403 144.917 116.875 144.917 113.756C144.917 110.638 142.395 108.11 139.283 108.11Z" fill="#006D31"></path>
<path d="M215.283 108.11H206.342C203.231 108.11 200.708 110.638 200.708 113.756C200.708 116.875 203.231 119.403 206.342 119.403H215.283C218.395 119.403 220.917 116.875 220.917 113.756C220.917 110.638 218.395 108.11 215.283 108.11Z" fill="#006D31"></path>
<path d="M400.742 106.463H362.717C358.698 106.463 355.44 109.728 355.44 113.756C355.44 117.784 358.698 121.049 362.717 121.049H400.742C404.76 121.049 408.018 117.784 408.018 113.756C408.018 109.728 404.76 106.463 400.742 106.463Z" stroke="#323232"></path>
<path d="M398.258 113.618L396.39 115.5C396.287 115.593 396.169 115.638 396.047 115.638C395.925 115.638 395.808 115.592 395.714 115.5L393.85 113.618C393.705 113.484 393.663 113.281 393.738 113.106C393.808 112.931 393.982 112.815 394.17 112.815H397.911C398.104 112.815 398.273 112.93 398.348 113.106C398.418 113.282 398.39 113.484 398.258 113.618Z" fill="#323232"></path>
<rect x="418" y="110.585" width="7" height="7" fill="#323232"></rect>
<rect x="433" y="110.585" width="7" height="7" fill="#323232"></rect>
<rect x="-119" y="106.585" width="127" height="7" fill="#EEEEEE"></rect>
<rect x="-119" y="117.585" width="127" height="5" fill="#EEEEEE"></rect>
<rect x="46" y="111.585" width="24" height="5" fill="#EEEEEE"></rect>
<rect x="108" y="111.585" width="13" height="5" fill="#EEEEEE"></rect>
<rect x="184" y="111.585" width="13" height="5" fill="#EEEEEE"></rect>
<rect x="258" y="111.585" width="13" height="5" fill="#EEEEEE"></rect>
<path d="M-177 136.585H499V181.585H-177V136.585Z" fill="white"></path>
<path d="M499 181.056V180.585H-177V181.056V181.527H499V181.056Z" fill="#E0E0E0"></path>
<path d="M139.283 153.11H130.342C127.231 153.11 124.708 155.638 124.708 158.756C124.708 161.875 127.231 164.403 130.342 164.403H139.283C142.395 164.403 144.917 161.875 144.917 158.756C144.917 155.638 142.395 153.11 139.283 153.11Z" fill="#006D31"></path>
<path d="M215.283 153.11H206.342C203.231 153.11 200.708 155.638 200.708 158.756C200.708 161.875 203.231 164.403 206.342 164.403H215.283C218.395 164.403 220.917 161.875 220.917 158.756C220.917 155.638 218.395 153.11 215.283 153.11Z" fill="#006D31"></path>
<path d="M400.742 151.463H362.717C358.698 151.463 355.44 154.728 355.44 158.756C355.44 162.784 358.698 166.049 362.717 166.049H400.742C404.76 166.049 408.018 162.784 408.018 158.756C408.018 154.728 404.76 151.463 400.742 151.463Z" stroke="#323232"></path>
<path d="M398.258 158.618L396.39 160.5C396.287 160.593 396.169 160.638 396.047 160.638C395.925 160.638 395.808 160.592 395.714 160.5L393.85 158.618C393.705 158.484 393.663 158.281 393.738 158.106C393.808 157.931 393.982 157.815 394.17 157.815H397.911C398.104 157.815 398.273 157.93 398.348 158.106C398.418 158.282 398.39 158.484 398.258 158.618Z" fill="#323232"></path>
<rect x="418" y="155.585" width="7" height="7" fill="#323232"></rect>
<rect x="433" y="155.585" width="7" height="7" fill="#323232"></rect>
<rect x="-119" y="151.585" width="127" height="7" fill="#EEEEEE"></rect>
<rect x="-119" y="162.585" width="127" height="5" fill="#EEEEEE"></rect>
<rect x="46" y="156.585" width="24" height="5" fill="#EEEEEE"></rect>
<rect x="108" y="156.585" width="13" height="5" fill="#EEEEEE"></rect>
<rect x="184" y="156.585" width="13" height="5" fill="#EEEEEE"></rect>
<rect x="258" y="156.585" width="13" height="5" fill="#EEEEEE"></rect>
<path d="M473.105 157.161C473.182 157.07 473.287 157 473.393 157C473.489 157 473.584 157.038 473.66 157.114L478.5 161.965L483.34 157.114C483.5 156.953 483.749 156.963 483.896 157.138C484.043 157.312 484.033 157.583 483.874 157.743L478.766 162.886C478.615 163.038 478.384 163.038 478.232 162.886L473.124 157.743C472.967 157.606 472.957 157.335 473.105 157.161Z" fill="#323232"></path>
<path d="M-177 181.585H499V226.585H-177V181.585Z" fill="white"></path>
<path d="M499 226.056V225.585H-177V226.056V226.527H499V226.056Z" fill="#E0E0E0"></path>
<path d="M139.283 198.11H130.342C127.231 198.11 124.708 200.638 124.708 203.756C124.708 206.875 127.231 209.403 130.342 209.403H139.283C142.395 209.403 144.917 206.875 144.917 203.756C144.917 200.638 142.395 198.11 139.283 198.11Z" fill="#006D31"></path>
<path d="M215.283 198.11H206.342C203.231 198.11 200.708 200.638 200.708 203.756C200.708 206.875 203.231 209.403 206.342 209.403H215.283C218.395 209.403 220.917 206.875 220.917 203.756C220.917 200.638 218.395 198.11 215.283 198.11Z" fill="#006D31"></path>
<path d="M400.742 196.463H362.717C358.698 196.463 355.44 199.728 355.44 203.756C355.44 207.784 358.698 211.049 362.717 211.049H400.742C404.76 211.049 408.018 207.784 408.018 203.756C408.018 199.728 404.76 196.463 400.742 196.463Z" stroke="#323232"></path>
<path d="M398.258 203.618L396.39 205.5C396.287 205.593 396.169 205.638 396.047 205.638C395.925 205.638 395.808 205.592 395.714 205.5L393.85 203.618C393.705 203.484 393.663 203.281 393.738 203.106C393.808 202.931 393.982 202.815 394.17 202.815H397.911C398.104 202.815 398.273 202.93 398.348 203.106C398.418 203.282 398.39 203.484 398.258 203.618Z" fill="#323232"></path>
<rect x="418" y="200.585" width="7" height="7" fill="#323232"></rect>
<rect x="433" y="200.585" width="7" height="7" fill="#323232"></rect>
<rect x="-119" y="196.585" width="127" height="7" fill="#EEEEEE"></rect>
<rect x="-119" y="207.585" width="127" height="5" fill="#EEEEEE"></rect>
<rect x="46" y="201.585" width="24" height="5" fill="#EEEEEE"></rect>
<rect x="108" y="201.585" width="13" height="5" fill="#EEEEEE"></rect>
<rect x="184" y="201.585" width="13" height="5" fill="#EEEEEE"></rect>
<rect x="258" y="201.585" width="13" height="5" fill="#EEEEEE"></rect>
<path d="M473.105 202.161C473.182 202.07 473.287 202 473.393 202C473.489 202 473.584 202.038 473.66 202.114L478.5 206.965L483.34 202.114C483.5 201.953 483.749 201.963 483.896 202.138C484.043 202.312 484.033 202.583 483.874 202.743L478.766 207.886C478.615 208.038 478.384 208.038 478.232 207.886L473.124 202.743C472.967 202.606 472.957 202.335 473.105 202.161Z" fill="#323232"></path>
<path d="M-177 226.585H499V271.585H-177V226.585Z" fill="white"></path>
<path d="M499 271.056V270.585H-177V271.056V271.527H499V271.056Z" fill="#E0E0E0"></path>
<path d="M139.283 243.11H130.342C127.231 243.11 124.708 245.638 124.708 248.756C124.708 251.875 127.231 254.403 130.342 254.403H139.283C142.395 254.403 144.917 251.875 144.917 248.756C144.917 245.638 142.395 243.11 139.283 243.11Z" fill="#006D31"></path>
<path d="M215.283 243.11H206.342C203.231 243.11 200.708 245.638 200.708 248.756C200.708 251.875 203.231 254.403 206.342 254.403H215.283C218.395 254.403 220.917 251.875 220.917 248.756C220.917 245.638 218.395 243.11 215.283 243.11Z" fill="#006D31"></path>
<path d="M400.742 241.463H362.717C358.698 241.463 355.44 244.728 355.44 248.756C355.44 252.784 358.698 256.049 362.717 256.049H400.742C404.76 256.049 408.018 252.784 408.018 248.756C408.018 244.728 404.76 241.463 400.742 241.463Z" stroke="#323232"></path>
<path d="M398.258 248.618L396.39 250.5C396.287 250.593 396.169 250.638 396.047 250.638C395.925 250.638 395.808 250.592 395.714 250.5L393.85 248.618C393.705 248.484 393.663 248.281 393.738 248.106C393.808 247.931 393.982 247.815 394.17 247.815H397.911C398.104 247.815 398.273 247.93 398.348 248.106C398.418 248.282 398.39 248.484 398.258 248.618Z" fill="#323232"></path>
<rect x="418" y="245.585" width="7" height="7" fill="#323232"></rect>
<rect x="433" y="245.585" width="7" height="7" fill="#323232"></rect>
<rect x="-119" y="241.585" width="127" height="7" fill="#EEEEEE"></rect>
<rect x="-119" y="252.585" width="127" height="5" fill="#EEEEEE"></rect>
<rect x="46" y="246.585" width="24" height="5" fill="#EEEEEE"></rect>
<rect x="108" y="246.585" width="13" height="5" fill="#EEEEEE"></rect>
<rect x="184" y="246.585" width="13" height="5" fill="#EEEEEE"></rect>
<rect x="258" y="246.585" width="13" height="5" fill="#EEEEEE"></rect>
<path d="M-177 271.585H499V316.585H-177V271.585Z" fill="white"></path>
<path d="M499 316.056V315.585H-177V316.056V316.527H499V316.056Z" fill="#E0E0E0"></path>
<path d="M139.283 288.11H130.342C127.231 288.11 124.708 290.638 124.708 293.756C124.708 296.875 127.231 299.403 130.342 299.403H139.283C142.395 299.403 144.917 296.875 144.917 293.756C144.917 290.638 142.395 288.11 139.283 288.11Z" fill="#006D31"></path>
<path d="M215.283 288.11H206.342C203.231 288.11 200.708 290.638 200.708 293.756C200.708 296.875 203.231 299.403 206.342 299.403H215.283C218.395 299.403 220.917 296.875 220.917 293.756C220.917 290.638 218.395 288.11 215.283 288.11Z" fill="#006D31"></path>
<path d="M400.742 286.463H362.717C358.698 286.463 355.44 289.728 355.44 293.756C355.44 297.784 358.698 301.049 362.717 301.049H400.742C404.76 301.049 408.018 297.784 408.018 293.756C408.018 289.728 404.76 286.463 400.742 286.463Z" stroke="#323232"></path>
<path d="M398.258 293.618L396.39 295.5C396.287 295.593 396.169 295.638 396.047 295.638C395.925 295.638 395.808 295.592 395.714 295.5L393.85 293.618C393.705 293.484 393.663 293.281 393.738 293.106C393.808 292.931 393.982 292.815 394.17 292.815H397.911C398.104 292.815 398.273 292.93 398.348 293.106C398.418 293.282 398.39 293.484 398.258 293.618Z" fill="#323232"></path>
<rect x="418" y="290.585" width="7" height="7" fill="#323232"></rect>
<rect x="433" y="290.585" width="7" height="7" fill="#323232"></rect>
<rect x="-119" y="286.585" width="127" height="7" fill="#EEEEEE"></rect>
<rect x="-119" y="297.585" width="127" height="5" fill="#EEEEEE"></rect>
<rect x="46" y="291.585" width="24" height="5" fill="#EEEEEE"></rect>
<rect x="108" y="291.585" width="13" height="5" fill="#EEEEEE"></rect>
<rect x="184" y="291.585" width="13" height="5" fill="#EEEEEE"></rect>
<rect x="258" y="291.585" width="13" height="5" fill="#EEEEEE"></rect>
<path d="M473.105 292.161C473.182 292.07 473.287 292 473.393 292C473.489 292 473.584 292.038 473.66 292.114L478.5 296.965L483.34 292.114C483.5 291.953 483.749 291.963 483.896 292.138C484.043 292.312 484.033 292.583 483.874 292.743L478.766 297.886C478.615 298.038 478.384 298.038 478.232 297.886L473.124 292.743C472.967 292.606 472.957 292.335 473.105 292.161Z" fill="#323232"></path>
<path d="M-177 316.585H499V361.585H-177V316.585Z" fill="white"></path>
<path d="M499 361.056V360.585H-177V361.056V361.527H499V361.056Z" fill="#E0E0E0"></path>
<path d="M139.283 333.11H130.342C127.231 333.11 124.708 335.638 124.708 338.756C124.708 341.875 127.231 344.403 130.342 344.403H139.283C142.395 344.403 144.917 341.875 144.917 338.756C144.917 335.638 142.395 333.11 139.283 333.11Z" fill="#006D31"></path>
<path d="M215.283 333.11H206.342C203.231 333.11 200.708 335.638 200.708 338.756C200.708 341.875 203.231 344.403 206.342 344.403H215.283C218.395 344.403 220.917 341.875 220.917 338.756C220.917 335.638 218.395 333.11 215.283 333.11Z" fill="#006D31"></path>
<path d="M400.742 331.463H362.717C358.698 331.463 355.44 334.728 355.44 338.756C355.44 342.784 358.698 346.049 362.717 346.049H400.742C404.76 346.049 408.018 342.784 408.018 338.756C408.018 334.728 404.76 331.463 400.742 331.463Z" stroke="#323232"></path>
<path d="M398.258 338.618L396.39 340.5C396.287 340.593 396.169 340.638 396.047 340.638C395.925 340.638 395.808 340.592 395.714 340.5L393.85 338.618C393.705 338.484 393.663 338.281 393.738 338.106C393.808 337.931 393.982 337.815 394.17 337.815H397.911C398.104 337.815 398.273 337.93 398.348 338.106C398.418 338.282 398.39 338.484 398.258 338.618Z" fill="#323232"></path>
<rect x="418" y="335.585" width="7" height="7" fill="#323232"></rect>
<rect x="433" y="335.585" width="7" height="7" fill="#323232"></rect>
<rect x="-119" y="331.585" width="127" height="7" fill="#EEEEEE"></rect>
<rect x="-119" y="342.585" width="127" height="5" fill="#EEEEEE"></rect>
<rect x="46" y="336.585" width="24" height="5" fill="#EEEEEE"></rect>
<rect x="108" y="336.585" width="13" height="5" fill="#EEEEEE"></rect>
<rect x="184" y="336.585" width="13" height="5" fill="#EEEEEE"></rect>
<rect x="258" y="336.585" width="13" height="5" fill="#EEEEEE"></rect>
<path d="M-177 361.585H499V406.585H-177V361.585Z" fill="white"></path>
<path d="M139.283 378.11H130.342C127.231 378.11 124.708 380.638 124.708 383.756C124.708 386.875 127.231 389.403 130.342 389.403H139.283C142.395 389.403 144.917 386.875 144.917 383.756C144.917 380.638 142.395 378.11 139.283 378.11Z" fill="#006D31"></path>
<path d="M215.283 378.11H206.342C203.231 378.11 200.708 380.638 200.708 383.756C200.708 386.875 203.231 389.403 206.342 389.403H215.283C218.395 389.403 220.917 386.875 220.917 383.756C220.917 380.638 218.395 378.11 215.283 378.11Z" fill="#006D31"></path>
<path d="M400.742 376.463H362.717C358.698 376.463 355.44 379.728 355.44 383.756C355.44 387.784 358.698 391.049 362.717 391.049H400.742C404.76 391.049 408.018 387.784 408.018 383.756C408.018 379.728 404.76 376.463 400.742 376.463Z" stroke="#323232"></path>
<path d="M398.258 383.618L396.39 385.5C396.287 385.593 396.169 385.638 396.047 385.638C395.925 385.638 395.808 385.592 395.714 385.5L393.85 383.618C393.705 383.484 393.663 383.281 393.738 383.106C393.808 382.931 393.982 382.815 394.17 382.815H397.911C398.104 382.815 398.273 382.93 398.348 383.106C398.418 383.282 398.39 383.484 398.258 383.618Z" fill="#323232"></path>
<rect x="418" y="380.585" width="7" height="7" fill="#323232"></rect>
<rect x="433" y="380.585" width="7" height="7" fill="#323232"></rect>
<rect x="-119" y="376.585" width="127" height="7" fill="#EEEEEE"></rect>
<rect x="-119" y="387.585" width="127" height="5" fill="#EEEEEE"></rect>
<rect x="46" y="381.585" width="24" height="5" fill="#EEEEEE"></rect>
<rect x="108" y="381.585" width="13" height="5" fill="#EEEEEE"></rect>
<rect x="184" y="381.585" width="13" height="5" fill="#EEEEEE"></rect>
<rect x="258" y="381.585" width="13" height="5" fill="#EEEEEE"></rect>
</g>
<rect x="-177.25" y="68.75" width="676.5" height="698.085" rx="7.25" stroke="#E0E0E0" stroke-width="0.5"></rect>
</g>
<defs>
<clipPath id="clip0_4910_27570">
<rect width="600" height="390" fill="white"></rect>
</clipPath>
<clipPath id="clip1_4910_27570">
<rect x="-177" y="69" width="676" height="697.585" rx="7" fill="white"></rect>
</clipPath>
</defs>
</svg>
